<?xml version="1.0" encoding="UTF-8" standalone="no"?>
<!-- Created with Inkscape (http://www.inkscape.org/) -->

<svg
   version="1.1"
   id="svg55"
   width="200"
   height="197"
   viewBox="0 0 200 197"
   sodipodi:docname="logo_icon_black.svg"
   inkscape:version="1.1.2 (0a00cf5339, 2022-02-04)"
   inkscape:export-filename="/home/bwurster/Pictures/logo_icon_black.png"
   inkscape:export-xdpi="96"
   inkscape:export-ydpi="96"
   xmlns:inkscape="http://www.inkscape.org/namespaces/inkscape"
   xmlns:sodipodi="http://sodipodi.sourceforge.net/DTD/sodipodi-0.dtd"
   xmlns="http://www.w3.org/2000/svg"
   xmlns:svg="http://www.w3.org/2000/svg">
  <defs
     id="defs59" />
  <sodipodi:namedview
     id="namedview57"
     pagecolor="#ffffff"
     bordercolor="#666666"
     borderopacity="1.0"
     inkscape:pageshadow="2"
     inkscape:pageopacity="0.0"
     inkscape:pagecheckerboard="0"
     showgrid="false"
     inkscape:zoom="4.0964467"
     inkscape:cx="104.35874"
     inkscape:cy="96.547088"
     inkscape:window-width="1920"
     inkscape:window-height="1016"
     inkscape:window-x="1920"
     inkscape:window-y="27"
     inkscape:window-maximized="1"
     inkscape:current-layer="g61" />
  <g
     inkscape:groupmode="layer"
     inkscape:label="Image"
     id="g61">
    <path
       style="fill:#000000"
       d="M 8.0258762,192.321 C 7.5220362,191.50577 22.547436,175.80491 52.394188,145.95816 L 97.524344,100.82801 50.80262,54.098351 C 13.504946,16.794343 4.3322262,7.117365 5.3269062,6.122679 6.3215962,5.127993 15.998846,14.300982 53.303907,51.599714 l 46.730983,46.723054 46.469,-46.477061 C 177.48322,20.861003 193.30621,5.701984 193.97288,6.368651 194.63955,7.035318 179.48325,22.860974 148.50397,53.84562 l -46.46891,46.47697 45.26889,45.27709 c 36.13603,36.14258 45.01752,45.52844 44.02296,46.523 -0.99456,0.99456 -10.38042,-7.88692 -46.52296,-44.02292 L 99.52691,102.83092 54.157311,148.1923 C 23.835956,178.50817 8.5350262,193.14483 8.0258762,192.321 Z M 72.527409,189.32361 C 71.949007,188.24286 71.52691,178.37739 71.52691,165.93943 v -21.51474 l 13.377409,-7.551 c 7.357574,-4.15306 13.882574,-7.55101 14.5,-7.55101 0.617421,0 1.122591,0.675 1.122591,1.5 0,1.97017 2.10095,1.89637 6.56097,-0.23046 3.44041,-1.64062 3.69452,-1.64062 4.89417,0 0.69594,0.95175 2.22824,1.73046 3.4051,1.73046 2.1226,0 2.13976,0.17944 2.13976,22.37929 v 22.37929 l -12.28832,7.00304 -12.288317,7.00304 -9.711183,0.0529 c -8.493497,0.0462 -9.836635,-0.18155 -10.711681,-1.81659 z m 8.417714,-1.60792 c 1.364224,-0.5235 1.581787,-3.17483 1.581787,-19.27642 v -18.66944 l -4,0.38146 -4,0.38146 v 18.2283 c 0,10.02556 0.3,18.5283 0.666667,18.89496 0.831758,0.83176 3.662982,0.86114 5.751546,0.0597 z M 76.52691,169.82268 c 0,-13.11111 0.231183,-15.5 1.5,-15.5 1.268817,0 1.5,2.38889 1.5,15.5 0,13.11111 -0.231183,15.5 -1.5,15.5 -1.268817,0 -1.5,-2.38889 -1.5,-15.5 z m 26.22348,11.75 11.77446,-6.75 0.001,-18.79215 10e-4,-18.79216 -4.25,2.47576 c -2.3375,1.36166 -7.39286,4.30563 -11.23413,6.54215 -3.841271,2.23652 -8.160901,4.0664 -9.599177,4.0664 -2.597109,0 -2.619475,0.0669 -3.260696,9.75 -0.815131,12.30935 -0.837741,24.61281 -0.04901,26.66821 1.078998,2.81183 4.61466,1.71213 16.616493,-5.16821 z m -14.53598,3.10417 c -0.378125,-0.37813 -0.6875,-7.3955 -0.6875,-15.59416 0,-13.65854 0.146526,-14.87844 1.75,-14.56964 1.573306,0.30299 1.75,1.84174 1.75,15.23999 0,13.98932 -0.594171,17.14214 -2.8125,14.92381 z m 6.3125,-29.17525 v -4.82107 l 8.33577,-4.67893 c 4.58467,-2.5734 8.85967,-4.67892 9.5,-4.67892 0.72854,0 1.16423,1.84887 1.16423,4.94047 v 4.94047 l -8.10785,4.55953 c -4.45932,2.50774 -8.734316,4.55953 -9.499999,4.55953 -0.997026,0 -1.392151,-1.36834 -1.392151,-4.82108 z m 12.75,-4.75515 c 1.7875,-1.02024 3.25,-2.43296 3.25,-3.13938 0,-1.80091 -0.40791,-1.68732 -7.0589,1.96561 -3.86771,2.12427 -5.921479,3.88442 -5.929235,5.08156 -0.01135,1.75248 0.128449,1.74771 3.238135,-0.11063 1.7875,-1.0682 4.7125,-2.77692 6.5,-3.79716 z m -25.634859,-5.27809 c 1.311673,-1.01987 5.873419,-3.76112 10.137215,-6.09167 4.263795,-2.33056 7.495201,-4.65345 7.180901,-5.162 -0.314299,-0.50855 -0.877859,-0.75888 -1.252355,-0.55628 -11.133991,6.02318 -21.180902,12.08037 -21.180902,12.76977 0,1.4911 2.587396,1.0056 5.115141,-0.95982 z M 99.9368,141.5726 c 8.80366,-5.10806 11.25289,-7.13151 8.84011,-7.30333 -1.23994,-0.0883 -21.238061,11.49342 -21.24426,12.30341 -0.01283,1.67598 2.971087,0.47317 12.40415,-5.00008 z m -91.4098938,0.42523 c 0,-2.06896 4.8361998,-15.77286 6.1065298,-17.30351 0.93163,-1.12254 0.42601,-1.37164 -2.78408,-1.37164 -2.1573498,0 -4.4624498,-0.54 -5.1224498,-1.2 -1.68626,-1.68626 -1.68626,-34.91374 0,-36.600001 1.69713,-1.697124 42.9010808,-1.698923 44.5980568,-0.0019 0.930738,0.930738 1.934266,0.484489 4.497608,-2 1.814754,-1.758976 3.743502,-3.1981 4.286106,-3.1981 1.279642,0 11.418233,10.256652 11.418233,11.551196 0,0.543568 -4.275,5.245529 -9.5,10.448805 -9.233912,9.19552 -9.5,9.58849 -9.5,14.03025 0,5.72543 -1.236844,6.96975 -6.927876,6.96975 -4.295922,0 -4.913221,0.38297 -12.049998,7.47579 -6.604,6.56331 -8.42842,7.78388 -14.94728,10 -8.45237,2.87342 -10.0748498,3.06657 -10.0748498,1.19936 z m 10.5928998,-5.28782 c 2.95518,-0.7417 2.97852,-1.15018 0.23279,-4.07288 -2.74456,-2.92145 -3.46047,-2.90571 -4.21301,0.0927 -0.33228,1.3239 -0.90919,3.20203 -1.28202,4.17361 -0.53407,1.39177 -0.30314,1.62271 1.08864,1.08863 0.97158,-0.37283 2.8497,-0.94973 4.1736,-1.28201 z m 23.232096,-19.71208 c 13.10492,-13.123 16.034294,-16.54714 14.935983,-17.458662 -1.087939,-0.90291 -4.691995,2.196402 -17.691308,15.213652 -14.306091,14.32582 -17.562621,18.56976 -14.249281,18.56976 0.38629,0 8.03836,-7.34614 17.004606,-16.32475 z m -5,-5 c 13.10492,-13.123002 16.034294,-16.547144 14.935983,-17.458661 -1.087939,-0.902909 -4.691995,2.1964 -17.691309,15.213651 -14.30609,14.32582 -17.56262,18.56976 -14.24928,18.56976 0.38629,0 8.03836,-7.34614 17.004606,-16.32475 z m -2.345026,-7.68852 C 45.023908,94.211819 49.57002,88.965789 48.891425,88.287194 48.262694,87.658463 40.561246,87.380831 28.454696,87.550464 l -19.4277898,0.272215 -0.2787,14.454011 c -0.15328,7.94971 -0.0549,15.03721 0.21862,15.75 0.3211,0.83679 2.3839598,1.29599 5.8219298,1.29599 h 5.32462 z m -21.47997,-3.15799 c 0,-0.64419 0.68636,-1.929672 1.52523,-2.856622 1.36697,-1.510482 1.36697,-1.816696 0,-2.951181 -1.87654,-1.557393 -1.9988,-4.020938 -0.19954,-4.020938 1.52121,0 5.67431,4.128085 5.67431,5.640137 0,1.364852 -4.33384,5.359864 -5.81445,5.359864 -0.65205,0 -1.18555,-0.52707 -1.18555,-1.17126 z m 8,-0.26837 c 0,-1.159072 1.05016,-1.560372 4.08334,-1.560372 5.21025,0 4.86475,2.364562 -0.41064,2.810372 -2.7937,0.23608 -3.6727,-0.0631 -3.6727,-1.25 z m 27.541123,17.3731 c 1.172628,-1.89735 -0.537618,-2.36554 -2.279214,-0.62395 -1.558942,1.55895 -1.561681,1.69048 -0.03521,1.69048 0.910398,0 1.951888,-0.47994 2.314422,-1.06653 z m 14.762058,-30.135036 -3.708533,-3.797882 -3.303177,3.201565 -3.303177,3.201565 3.708533,3.797882 3.708533,3.797884 3.303177,-3.201567 3.303177,-3.201565 z M 151.52691,130.8864 c 0,-0.23995 3.375,-14.62416 7.5,-31.964912 4.125,-17.340752 7.5,-31.769426 7.5,-32.063723 0,-0.294297 0.675,-0.535086 1.5,-0.535086 0.825,0 1.5,0.504893 1.5,1.121985 0,1.083165 -12.03585,52.501316 -14.07463,60.128016 -0.57887,2.16542 -1.62,3.75 -2.46391,3.75 -0.8038,0 -1.46146,-0.19633 -1.46146,-0.43628 z M 138.5986,110.71335 c -6.08943,-5.83513 -11.07169,-11.202782 -11.07169,-11.928112 0,-1.254435 21.0189,-21.596248 23.03802,-22.295892 0.52909,-0.183334 0.96198,0.570131 0.96198,1.674367 0,1.262917 -3.75036,5.467164 -10.10981,11.333333 l -10.10981,9.325632 10.10981,9.512892 c 8.89215,8.36713 12.15834,12.98711 9.1815,12.98711 -0.51057,0 -5.91057,-4.7742 -12,-10.60933 z m 30.92831,9.32765 c 0,-0.78558 4.54323,-5.88107 10.09608,-11.32332 l 10.09607,-9.895002 -10.09607,-9.559767 c -9.82266,-9.300869 -11.17662,-11.154388 -9.09008,-12.443941 1.24253,-0.767924 22.994,20.272824 22.994,22.242678 0,1.590772 -20.47932,21.577852 -22.62825,22.084352 -0.75446,0.17783 -1.37175,-0.31942 -1.37175,-1.105 z M 88.985311,62.255371 c -0.36322,-0.587703 0.284299,-1.314152 1.440983,-1.616631 1.521459,-0.397871 2.100616,-1.344292 2.100616,-3.432692 V 54.322679 H 80.598339 c -9.510823,0 -12.247078,-0.318506 -13.5,-1.571429 -2.34492,-2.344919 -2.34492,-42.512223 0,-44.8571418 C 68.459816,6.53263 72.842062,6.322679 99.89834,6.322679 c 22.95555,0 31.54647,0.317902 32.42857,1.2 0.85982,0.8598202 1.2,7.369959 1.2,22.964816 0,20.49478 -0.11287,21.825222 -1.93426,22.8 -1.06384,0.569351 -7.13884,1.035184 -13.5,1.035184 h -11.56574 v 3 c 0,2.333333 0.44444,3 2,3 1.11111,0 2,0.666667 2,1.5 0,1.237557 -1.82678,1.5 -10.44098,1.5 -6.320931,0 -10.70128,-0.421164 -11.100619,-1.067308 z m 14.541599,-4.932692 c 0,-2.833333 -0.22222,-3 -4,-3 -3.777778,0 -4,0.166667 -4,3 0,2.833333 0.222222,3 4,3 3.77778,0 4,-0.166667 4,-3 z m 26.81642,-9.25 0.31642,-2.75 H 99.59333 c -29.249145,0 -31.06642,0.105294 -31.06642,1.8 0,4.094709 1.174169,4.240341 31.96455,3.96455 l 29.53545,-0.26455 z m -32.273715,0.319098 c -0.316431,-0.511996 -0.117988,-1.213553 0.440983,-1.559017 1.193372,-0.737546 3.016312,0.198568 3.016312,1.548936 0,1.216805 -2.706621,1.224697 -3.457295,0.01008 z M 130.3023,25.572679 130.02691,9.8226792 100.0953,9.5575192 c -23.279974,-0.206234 -30.110083,0.01599 -30.734691,0.9999998 -0.44169,0.695838 -0.809964,7.90266 -0.818386,16.01516 l -0.01531,14.75 h 31.02539 31.025397 z"
       id="path779"
       inkscape:export-filename="/home/bwurster/Pictures/logo_icon_white.png"
       inkscape:export-xdpi="96"
       inkscape:export-ydpi="96" />
  </g>
</svg>
